<svg width="250" height="250" viewBox="0 0 250 250" fill="none" xmlns="http://www.w3.org/2000/svg">
<rect width="250" height="250" fill="black"/>
<path d="M102.031 185.953C98.5156 185.823 95.5208 184.586 93.0469 182.242C90.5729 179.768 89.2708 176.773 89.1406 173.258V146.891H66.6797C63.0339 146.891 59.9089 145.654 57.3047 143.18C54.8307 140.576 53.5938 137.451 53.5938 133.805C53.5938 130.159 54.8958 127.099 57.5 124.625C59.974 122.021 63.0339 120.719 66.6797 120.719H89.1406C89.5312 113.036 90.8333 105.615 93.0469 98.4531C95.651 90.25 99.8828 83.349 105.742 77.75C111.732 72.0208 119.284 68.8958 128.398 68.375H182.695C186.211 68.5052 189.141 69.8073 191.484 72.2812C193.958 74.625 195.26 77.5547 195.391 81.0703C195.391 84.7161 194.154 87.8411 191.68 90.4453C189.336 93.0495 186.341 94.4167 182.695 94.5469H135.039C130.091 94.8073 125.99 96.6953 122.734 100.211C119.479 103.727 117.461 107.698 116.68 112.125C116.029 114.99 115.638 117.854 115.508 120.719H181.914C185.56 120.719 188.62 122.021 191.094 124.625C193.698 127.099 195 130.159 195 133.805C195 137.451 193.763 140.576 191.289 143.18C188.685 145.654 185.56 146.891 181.914 146.891H115.508V173.258C115.378 176.904 114.01 179.964 111.406 182.438C108.802 184.781 105.677 185.953 102.031 185.953Z" fill="#E8A030"/>
</svg>
