<svg width="939" height="230" viewBox="0 0 939 230" fill="none" xmlns="http://www.w3.org/2000/svg">
<g clip-path="url(#clip0_63_15)">
<rect width="939" height="230" fill="black"/>
<path d="M69.0312 164.953C65.5156 164.823 62.5208 163.586 60.0469 161.242C57.5729 158.768 56.2708 155.773 56.1406 152.258V125.891H33.6797C30.0339 125.891 26.9089 124.654 24.3047 122.18C21.8307 119.576 20.5938 116.451 20.5938 112.805C20.5938 109.159 21.8958 106.099 24.5 103.625C26.974 101.021 30.0339 99.7188 33.6797 99.7188H56.1406C56.5312 92.0365 57.8333 84.6146 60.0469 77.4531C62.651 69.25 66.8828 62.349 72.7422 56.75C78.7318 51.0208 86.2839 47.8958 95.3984 47.375H149.695C153.211 47.5052 156.141 48.8073 158.484 51.2812C160.958 53.625 162.26 56.5547 162.391 60.0703C162.391 63.7161 161.154 66.8411 158.68 69.4453C156.336 72.0495 153.341 73.4167 149.695 73.5469H102.039C97.0911 73.8073 92.9896 75.6953 89.7344 79.2109C86.4792 82.7266 84.4609 86.6979 83.6797 91.125C83.0286 93.9896 82.638 96.8542 82.5078 99.7188H148.914C152.56 99.7188 155.62 101.021 158.094 103.625C160.698 106.099 162 109.159 162 112.805C162 116.451 160.763 119.576 158.289 122.18C155.685 124.654 152.56 125.891 148.914 125.891H82.5078V152.258C82.3776 155.904 81.0104 158.964 78.4062 161.438C75.8021 163.781 72.6771 164.953 69.0312 164.953ZM223.133 162.609C211.674 162.219 203.016 159.549 197.156 154.602C191.297 149.523 187.065 143.859 184.461 137.609C181.857 131.229 180.555 124.784 180.555 118.273C180.555 111.503 181.792 104.992 184.266 98.7422C186.87 92.362 191.102 86.6979 196.961 81.75C202.951 76.6719 210.503 74.0677 219.617 73.9375H282.898C292.013 74.0677 299.5 76.6719 305.359 81.75C311.349 86.6979 315.581 92.362 318.055 98.7422C320.659 104.992 321.961 111.503 321.961 118.273C321.961 124.784 320.659 131.229 318.055 137.609C315.451 143.859 311.219 149.523 305.359 154.602C299.5 159.549 290.841 162.219 279.383 162.609H223.133ZM218.836 100.109C216.362 100.109 214.214 101.151 212.391 103.234C210.568 105.188 209.201 107.531 208.289 110.266C207.508 112.87 207.117 115.474 207.117 118.078C207.117 120.812 207.508 123.547 208.289 126.281C209.201 128.885 210.568 131.229 212.391 133.312C214.214 135.266 216.362 136.307 218.836 136.438H283.68C286.154 136.307 288.302 135.266 290.125 133.312C291.948 131.229 293.25 128.885 294.031 126.281C294.943 123.547 295.398 120.812 295.398 118.078C295.398 115.474 294.943 112.87 294.031 110.266C293.25 107.531 291.948 105.188 290.125 103.234C288.302 101.151 286.154 100.109 283.68 100.109H218.836ZM348.523 98.5469C350.997 92.2969 355.164 86.6979 361.023 81.75C367.013 76.6719 374.565 74.0677 383.68 73.9375H457.117C460.763 73.9375 463.823 75.2396 466.297 77.8438C468.901 80.3177 470.203 83.3776 470.203 87.0234C470.203 90.6693 468.901 93.7943 466.297 96.3984C463.823 98.8724 460.763 100.109 457.117 100.109H382.898C380.424 100.109 378.276 101.151 376.453 103.234C374.63 105.188 373.198 107.531 372.156 110.266C371.245 113 370.789 115.604 370.789 118.078V152.258C370.008 160.07 365.711 164.302 357.898 164.953C354.253 164.953 351.062 163.781 348.328 161.438C345.724 158.964 344.422 155.904 344.422 152.258V118.273H344.617C344.617 111.503 345.919 104.927 348.523 98.5469ZM503.016 71.9844C506.531 72.1146 509.526 73.4167 512 75.8906C514.474 78.2344 515.776 81.1641 515.906 84.6797V152.258C515.906 162.674 514.474 172.505 511.609 181.75C509.005 189.953 504.708 196.854 498.719 202.453C492.859 208.182 485.372 211.307 476.258 211.828H468.836C465.32 211.698 462.391 210.396 460.047 207.922C457.573 205.578 456.271 202.648 456.141 199.133C456.141 195.487 457.378 192.362 459.852 189.758C462.195 187.154 465.19 185.786 468.836 185.656H469.617C474.565 185.396 478.667 183.508 481.922 179.992C485.177 176.477 487.26 172.375 488.172 167.688C489.083 163 489.539 156.945 489.539 149.523V84.6797C489.669 81.0339 491.036 78.0391 493.641 75.6953C496.245 73.2214 499.37 71.9844 503.016 71.9844ZM486.609 46.5938C486.609 42.9479 488.172 39.8229 491.297 37.2188C494.422 34.6146 498.198 33.3125 502.625 33.3125C507.052 33.3125 510.828 34.6146 513.953 37.2188C517.078 39.8229 518.641 42.9479 518.641 46.5938C518.641 50.3698 517.078 53.5599 513.953 56.1641C510.828 58.7682 507.052 60.0703 502.625 60.0703C498.198 60.0703 494.422 58.7682 491.297 56.1641C488.172 53.5599 486.609 50.3698 486.609 46.5938Z" fill="#E8A030"/>
<path d="M685.325 78.8L691.225 83.7C688.625 85.7 685.692 87.6 682.425 89.4C679.225 91.2 676.092 92.8 673.025 94.2C672.758 93.4667 672.358 92.6 671.825 91.6C671.358 90.6 670.892 89.7333 670.425 89C673.158 87.6667 675.892 86.0667 678.625 84.2C681.425 82.3333 683.658 80.5333 685.325 78.8ZM671.225 104.2H688.725V110.9H671.225V104.2ZM671.225 124.1H688.725V130.8H671.225V124.1ZM663.125 147.8C666.725 147.133 670.958 146.333 675.825 145.4C680.758 144.4 685.858 143.367 691.125 142.3L691.725 148.6C686.992 149.667 682.258 150.7 677.525 151.7C672.792 152.7 668.492 153.633 664.625 154.5L663.125 147.8ZM693.225 83.7H699.225V97.7C699.225 100.167 699.025 102.833 698.625 105.7C698.225 108.5 697.425 111.267 696.225 114C695.092 116.667 693.392 119.067 691.125 121.2C690.858 120.8 690.392 120.367 689.725 119.9C689.125 119.433 688.492 119 687.825 118.6C687.158 118.133 686.592 117.767 686.125 117.5C688.258 115.567 689.825 113.467 690.825 111.2C691.825 108.933 692.458 106.633 692.725 104.3C693.058 101.9 693.225 99.6667 693.225 97.6V83.7ZM695.325 83.7H712.725V90H695.325V83.7ZM691.125 123.4H716.725V129.7H691.125V123.4ZM698.125 129.9C700.325 138.167 703.692 145.433 708.225 151.7C712.758 157.967 718.458 162.6 725.325 165.6C724.592 166.267 723.758 167.133 722.825 168.2C721.958 169.333 721.258 170.367 720.725 171.3C713.458 167.767 707.458 162.567 702.725 155.7C698.058 148.767 694.492 140.667 692.025 131.4L698.125 129.9ZM708.725 83.7H714.925V107.7C714.925 108.7 714.925 109.5 714.925 110.1C714.992 110.7 715.092 111.067 715.225 111.2C715.358 111.533 715.725 111.7 716.325 111.7C716.525 111.7 716.792 111.7 717.125 111.7C717.458 111.7 717.758 111.7 718.025 111.7C718.758 111.7 719.225 111.567 719.425 111.3C719.825 110.9 720.092 110.167 720.225 109.1C720.358 108.433 720.425 107.433 720.425 106.1C720.492 104.7 720.558 103.067 720.625 101.2C721.225 101.733 721.958 102.233 722.825 102.7C723.758 103.1 724.592 103.433 725.325 103.7C725.325 105.567 725.258 107.4 725.125 109.2C724.992 111 724.792 112.3 724.525 113.1C724.125 114.5 723.325 115.533 722.125 116.2C721.658 116.467 721.092 116.667 720.425 116.8C719.758 116.867 719.125 116.9 718.525 116.9C717.992 116.9 717.358 116.9 716.625 116.9C715.892 116.9 715.325 116.9 714.925 116.9C714.058 116.9 713.192 116.8 712.325 116.6C711.525 116.333 710.858 115.933 710.325 115.4C709.725 114.733 709.292 113.9 709.025 112.9C708.825 111.833 708.725 109.933 708.725 107.2V83.7ZM714.925 123.4H716.325L717.625 123.1L721.825 124.8C720.092 133 717.525 140.133 714.125 146.2C710.792 152.267 706.792 157.3 702.125 161.3C697.458 165.3 692.325 168.533 686.725 171C686.458 170.4 686.058 169.733 685.525 169C684.992 168.333 684.425 167.633 683.825 166.9C683.225 166.233 682.692 165.7 682.225 165.3C687.692 163.167 692.592 160.333 696.925 156.8C701.325 153.2 705.058 148.767 708.125 143.5C711.192 138.167 713.458 131.9 714.925 124.7V123.4ZM669.225 86.5L678.025 89.7C677.758 90.2333 677.058 90.6 675.925 90.8V170.9H669.225V86.5ZM631.525 161.3C635.792 160.5 640.958 159.533 647.025 158.4C653.158 157.2 659.392 155.933 665.725 154.6L666.225 161.1C660.425 162.233 654.625 163.4 648.825 164.6C643.025 165.867 637.792 166.967 633.125 167.9L631.525 161.3ZM637.125 103.9H663.225V110.2H637.125V103.9ZM632.625 120.7H664.525V127.2H632.625V120.7ZM634.725 133.9L639.525 132.8C640.525 135.867 641.358 139.167 642.025 142.7C642.692 146.167 643.092 149.2 643.225 151.8L638.025 153C637.958 150.4 637.625 147.333 637.025 143.8C636.425 140.267 635.658 136.967 634.725 133.9ZM659.325 131.7L664.525 132.9C663.858 135.967 663.125 139.133 662.325 142.4C661.592 145.667 660.892 148.5 660.225 150.9L655.625 149.8C656.092 148.133 656.558 146.233 657.025 144.1C657.558 141.967 658.025 139.8 658.425 137.6C658.825 135.4 659.125 133.433 659.325 131.7ZM646.925 106.6H653.125V159.9L646.925 160.8V106.6ZM647.025 79H650.925V80.6H653.025V82.5C651.825 85.0333 650.325 87.8667 648.525 91C646.792 94.0667 644.692 97.2 642.225 100.4C639.825 103.6 637.058 106.667 633.925 109.6C633.592 109.133 633.158 108.6 632.625 108C632.092 107.4 631.525 106.833 630.925 106.3C630.325 105.7 629.792 105.267 629.325 105C632.192 102.4 634.758 99.6 637.025 96.6C639.292 93.6 641.258 90.6 642.925 87.6C644.658 84.5333 646.025 81.6667 647.025 79ZM647.825 79H653.225C655.092 80.8667 656.958 82.9 658.825 85.1C660.758 87.3 662.558 89.5 664.225 91.7C665.892 93.8333 667.225 95.7667 668.225 97.5L663.325 102.9C662.392 101.167 661.125 99.1667 659.525 96.9C657.992 94.6333 656.292 92.3333 654.425 90C652.625 87.6667 650.858 85.6333 649.125 83.9H647.825V79ZM768.025 158.5H811.925V165.7H768.025V158.5ZM764.725 130.2H815.825V170.4H808.525V137.4H771.825V170.8H764.725V130.2ZM754.725 112.5C759.658 112.3 765.392 112.067 771.925 111.8C778.525 111.533 785.525 111.233 792.925 110.9C800.325 110.5 807.725 110.133 815.125 109.8L814.825 116.7C807.692 117.033 800.525 117.4 793.325 117.8C786.125 118.2 779.292 118.567 772.825 118.9C766.358 119.233 760.592 119.533 755.525 119.8L754.725 112.5ZM781.925 79.1L790.125 81.6C788.325 85.6 786.325 89.8333 784.125 94.3C781.992 98.7 779.792 102.967 777.525 107.1C775.325 111.167 773.192 114.767 771.125 117.9L764.325 115.5C766.325 112.3 768.425 108.6 770.625 104.4C772.825 100.133 774.892 95.8 776.825 91.4C778.825 86.9333 780.525 82.8333 781.925 79.1ZM733.125 90.6L738.325 85.3C740.525 86.7667 742.758 88.4 745.025 90.2C747.358 92 749.558 93.8333 751.625 95.7C753.692 97.5 755.358 99.1333 756.625 100.6L751.025 106.6C749.825 105.067 748.225 103.367 746.225 101.5C744.225 99.5667 742.092 97.6667 739.825 95.8C737.558 93.8667 735.325 92.1333 733.125 90.6ZM731.425 156.7C733.358 154.167 735.458 151.133 737.725 147.6C740.058 144.067 742.425 140.333 744.825 136.4C747.292 132.4 749.525 128.533 751.525 124.8L757.325 129.5C755.458 133.033 753.425 136.7 751.225 140.5C749.025 144.233 746.825 147.933 744.625 151.6C742.425 155.2 740.292 158.533 738.225 161.6L731.425 156.7ZM797.725 96.3L804.225 93.5C806.892 96.3 809.525 99.4 812.125 102.8C814.792 106.133 817.192 109.467 819.325 112.8C821.525 116.133 823.225 119.133 824.425 121.8L817.425 125.1C816.358 122.5 814.792 119.533 812.725 116.2C810.658 112.8 808.325 109.367 805.725 105.9C803.125 102.433 800.458 99.2333 797.725 96.3ZM860.725 120.1H923.725V126.6H860.725V120.1ZM872.025 133.6H915.525V139.8H872.025V133.6ZM876.825 122.5L883.425 124.2C880.825 129.733 877.392 134.867 873.125 139.6C868.925 144.267 864.525 148.167 859.925 151.3C859.592 150.9 859.092 150.4 858.425 149.8C857.825 149.2 857.192 148.6 856.525 148C855.858 147.4 855.258 146.967 854.725 146.7C859.325 143.9 863.592 140.4 867.525 136.2C871.525 132 874.625 127.433 876.825 122.5ZM914.125 133.6H921.225C921.225 133.6 921.192 134 921.125 134.8C921.125 135.533 921.092 136.133 921.025 136.6C920.492 143.533 919.925 149.133 919.325 153.4C918.792 157.667 918.192 160.933 917.525 163.2C916.858 165.467 916.058 167.1 915.125 168.1C914.325 169.033 913.458 169.667 912.525 170C911.592 170.333 910.525 170.533 909.325 170.6C908.258 170.733 906.825 170.8 905.025 170.8C903.292 170.8 901.425 170.733 899.425 170.6C899.425 169.667 899.258 168.6 898.925 167.4C898.592 166.267 898.192 165.267 897.725 164.4C899.592 164.6 901.292 164.733 902.825 164.8C904.358 164.867 905.492 164.9 906.225 164.9C906.892 164.9 907.458 164.833 907.925 164.7C908.458 164.567 908.892 164.267 909.225 163.8C909.958 163.133 910.592 161.767 911.125 159.7C911.725 157.633 912.258 154.6 912.725 150.6C913.258 146.533 913.725 141.267 914.125 134.8V133.6ZM877.325 100.9V108.8H909.525V100.9H877.325ZM877.325 87.6V95.5H909.525V87.6H877.325ZM870.525 82H916.525V114.5H870.525V82ZM832.925 100.6H862.525V107.8H832.925V100.6ZM844.625 79.8H851.725V141.3H844.625V79.8ZM831.025 145.2C833.558 144.133 836.492 142.867 839.825 141.4C843.158 139.933 846.725 138.333 850.525 136.6C854.325 134.867 858.125 133.167 861.925 131.5L863.525 138.1C858.392 140.633 853.225 143.2 848.025 145.8C842.825 148.333 838.125 150.633 833.925 152.7L831.025 145.2ZM901.425 134.8L906.625 137.6C905.425 141.8 903.725 146.067 901.525 150.4C899.325 154.733 896.858 158.733 894.125 162.4C891.392 166.067 888.525 169.067 885.525 171.4C884.858 170.667 883.992 169.9 882.925 169.1C881.925 168.3 880.925 167.633 879.925 167.1C883.058 164.967 886.025 162.167 888.825 158.7C891.692 155.233 894.192 151.4 896.325 147.2C898.525 143 900.225 138.867 901.425 134.8ZM885.725 135L890.925 138C889.192 141.6 886.958 145.267 884.225 149C881.558 152.667 878.592 156.067 875.325 159.2C872.058 162.333 868.792 164.967 865.525 167.1C864.925 166.3 864.158 165.467 863.225 164.6C862.358 163.733 861.458 163 860.525 162.4C863.792 160.6 867.058 158.233 870.325 155.3C873.592 152.367 876.558 149.133 879.225 145.6C881.958 142.067 884.125 138.533 885.725 135Z" fill="white"/>
</g>
<defs>
<clipPath id="clip0_63_15">
<rect width="939" height="230" fill="white"/>
</clipPath>
</defs>
</svg>
